<svg xmlns="http://www.w3.org/2000/svg" xmlns:xlink="http://www.w3.org/1999/xlink" width="720" height="720" viewBox="0 0 720 720"><defs><clipPath id="b"><rect width="720" height="720"/></clipPath></defs><g id="a" clip-path="url(#b)"><rect width="720" height="720" fill="rgba(255,255,255,0)"/><g transform="translate(81 46)"><path d="M4,95.125C4,51.978,42.476,17,89.938,17H554" transform="translate(0 453.75)" fill="none" stroke="#fff" stroke-linecap="round" stroke-linejoin="round" stroke-width="60"/><path d="M89.938,2H554V627H89.938C42.476,627,4,592.022,4,548.875V80.125C4,36.978,42.476,2,89.938,2Z" fill="none" stroke="#fff" stroke-linecap="round" stroke-linejoin="round" stroke-width="60"/></g><g transform="translate(209.009 160.012)"><path d="M8,17,62.512,71.512,117.025,17" transform="translate(88.511 176.943)" fill="none" stroke="#fff" stroke-linecap="round" stroke-linejoin="round" stroke-width="50"/><line y2="122.653" transform="translate(151.024 125.803)" fill="none" stroke="#fff" stroke-linecap="round" stroke-linejoin="round" stroke-width="50"/><path d="M272.041,208.8A68.14,68.14,0,0,0,232.792,84.919H215.621a109.025,109.025,0,1,0-187.25,99.349" transform="translate(0 0)" fill="none" stroke="#fff" stroke-linecap="round" stroke-linejoin="round" stroke-width="50"/></g></g></svg>