<?xml version="1.0" standalone="no"?>
<!DOCTYPE svg PUBLIC "-//W3C//DTD SVG 20010904//EN"
 "http://www.w3.org/TR/2001/REC-SVG-20010904/DTD/svg10.dtd">
<svg version="1.0" xmlns="http://www.w3.org/2000/svg"
 width="1440.000000pt" height="1440.000000pt" viewBox="0 0 1440.000000 1440.000000"
 preserveAspectRatio="xMidYMid meet">
<metadata>
Created by potrace 1.14, written by Peter Selinger 2001-2017
</metadata>
<g transform="translate(0.000000,1440.000000) scale(0.100000,-0.100000)"
fill="#000000" stroke="none">
<path d="M3239 14036 c-2 -2 -42 -7 -89 -11 -46 -3 -87 -8 -90 -10 -3 -1 -27
-6 -55 -9 -144 -19 -431 -106 -596 -182 -645 -296 -1093 -823 -1253 -1475 -58
-238 -55 101 -53 -5199 1 -2676 5 -4876 9 -4890 3 -14 12 -59 18 -100 16 -98
15 -95 34 -167 196 -754 811 -1351 1613 -1567 70 -19 144 -37 164 -40 20 -3
42 -7 50 -10 8 -3 39 -7 69 -11 30 -3 78 -9 105 -13 63 -9 9631 -9 9665 0 227
59 408 241 454 458 12 55 15 1006 15 6385 1 6317 1 6321 -19 6394 -49 176
-151 303 -305 381 -151 76 309 70 -4976 70 -2616 0 -4758 -2 -4760 -4z m8859
-5283 l-3 -4088 -4415 -1 c-2428 0 -4444 -4 -4480 -8 -36 -4 -83 -9 -105 -12
-33 -3 -135 -21 -220 -38 -104 -20 -309 -89 -453 -151 l-122 -53 3 3801 c1
2091 6 3816 10 3832 66 257 191 438 414 597 128 91 347 176 502 194 31 3 58 8
60 10 2 2 1986 4 4408 4 l4403 0 -2 -4087z m0 -6251 l2 -962 -4432 3 -4433 3
-80 20 c-249 64 -423 156 -575 305 -143 140 -241 321 -269 500 -15 90 -5 265
19 349 87 305 346 564 670 673 134 45 176 54 295 63 44 4 81 7 82 8 1 0 1963
1 4360 1 l4358 0 3 -963z"/>
<path d="M6105 11625 c-125 -15 -181 -23 -210 -29 -228 -50 -327 -78 -495
-144 -623 -244 -1147 -729 -1428 -1322 -124 -263 -205 -518 -237 -747 -3 -23
-8 -57 -11 -75 -13 -81 -19 -206 -19 -363 0 -152 10 -318 19 -334 2 -3 7 -31
10 -61 34 -286 164 -651 339 -950 95 -163 275 -402 353 -468 50 -43 165 -98
229 -109 103 -19 219 -1 320 49 171 84 276 264 269 463 -4 134 -35 202 -173
375 -88 110 -165 233 -217 346 -35 75 -99 258 -109 311 -3 16 -9 53 -15 83 -5
30 -12 69 -16 85 -14 66 -12 370 3 469 41 279 174 584 351 806 234 295 597
518 967 594 127 26 139 27 300 31 238 4 378 -16 586 -85 256 -85 455 -212 664
-424 188 -192 311 -400 404 -685 59 -180 104 -257 189 -323 129 -101 166 -110
476 -114 354 -4 451 -23 620 -123 210 -123 358 -332 412 -580 13 -62 13 -258
-1 -321 -50 -232 -154 -393 -358 -554 -72 -57 -114 -105 -147 -171 -44 -86
-58 -151 -55 -242 5 -103 10 -125 51 -210 61 -128 189 -230 334 -266 70 -18
184 -14 252 9 29 9 54 17 55 16 6 -4 123 75 188 127 79 62 233 213 286 281
210 269 354 609 396 935 15 119 8 481 -11 536 -3 8 -7 28 -10 44 -14 84 -21
110 -63 239 -130 396 -369 712 -727 960 -163 113 -418 228 -591 266 -22 4 -50
11 -63 14 -13 3 -58 10 -100 16 -42 5 -90 12 -107 14 -16 2 -60 5 -97 5 l-66
1 -52 108 c-259 543 -684 976 -1225 1249 -86 44 -269 122 -310 133 -16 5 -76
22 -131 39 -112 34 -252 65 -365 81 -41 6 -90 13 -109 16 -78 12 -449 11 -555
-1z"/>
<path d="M7110 9173 c-213 -37 -368 -204 -409 -438 -1 -3 -1 -296 -1 -651 l0
-645 -132 132 c-73 72 -155 147 -183 165 -72 48 -157 75 -250 79 -226 11 -413
-114 -497 -332 -30 -77 -32 -231 -4 -312 41 -118 68 -148 683 -762 547 -545
604 -599 665 -629 138 -67 306 -65 442 4 67 34 119 83 666 631 365 365 606
614 627 647 61 98 87 238 63 351 -6 31 -11 59 -11 62 2 13 -55 114 -88 156
-90 116 -245 189 -400 189 -71 0 -195 -38 -259 -80 -31 -20 -117 -97 -189
-171 l-133 -134 -1 650 c0 358 -3 664 -5 680 -35 231 -246 412 -481 412 -43 1
-89 -1 -103 -4z"/>
</g>
</svg>
